<?xml version="1.0" encoding="UTF-8"?>
<!DOCTYPE svg PUBLIC "-//W3C//DTD SVG 1.1//EN" "http://www.w3.org/Graphics/SVG/1.1/DTD/svg11.dtd">
<svg xmlns="http://www.w3.org/2000/svg" version="1.1" width="599px" height="599px" style="shape-rendering:geometricPrecision; text-rendering:geometricPrecision; image-rendering:optimizeQuality; fill-rule:evenodd; clip-rule:evenodd" xmlns:xlink="http://www.w3.org/1999/xlink">
<g><path style="opacity:1" fill="#b4b28d" d="M -0.5,-0.5 C 199.167,-0.5 398.833,-0.5 598.5,-0.5C 598.5,199.167 598.5,398.833 598.5,598.5C 398.833,598.5 199.167,598.5 -0.5,598.5C -0.5,398.833 -0.5,199.167 -0.5,-0.5 Z"/></g>
<g><path style="opacity:1" fill="#d2d0ba" d="M 217.5,74.5 C 204.77,74.1824 192.104,74.849 179.5,76.5C 181.877,75.1127 184.543,74.2794 187.5,74C 197.675,73.1751 207.675,73.3417 217.5,74.5 Z"/></g>
<g><path style="opacity:1" fill="#fefefd" d="M 217.5,74.5 C 222.269,75.889 227.269,76.5557 232.5,76.5C 236.167,77.1667 239.833,77.8333 243.5,78.5C 245.102,80.0739 247.102,80.7406 249.5,80.5C 254.127,81.6568 258.794,82.8235 263.5,84C 274.946,88.5273 285.946,93.8606 296.5,100C 302.803,103.978 308.803,108.311 314.5,113C 319.411,117.406 323.745,122.24 327.5,127.5C 327.703,129.044 328.37,130.378 329.5,131.5C 328.757,132.182 328.091,132.849 327.5,133.5C 324.833,135.167 322.167,136.833 319.5,138.5C 317.973,138.427 316.973,139.094 316.5,140.5C 314.566,141.11 312.899,142.11 311.5,143.5C 309.973,143.427 308.973,144.094 308.5,145.5C 302.433,149.952 296.266,154.286 290,158.5C 284.173,152.195 278.34,145.861 272.5,139.5C 271.167,137.5 269.5,135.833 267.5,134.5C 266.833,131.833 265.167,130.167 262.5,129.5C 259.786,126.785 256.786,124.451 253.5,122.5C 249.505,118.51 245.171,114.844 240.5,111.5C 240.167,111.833 239.833,112.167 239.5,112.5C 243.828,116.494 248.161,120.494 252.5,124.5C 254.167,126.5 255.833,128.5 257.5,130.5C 258.419,133.089 260.086,135.089 262.5,136.5C 265.55,138.549 267.883,141.216 269.5,144.5C 270.08,146.749 271.413,148.415 273.5,149.5C 276.975,153.104 279.975,157.104 282.5,161.5C 282.539,162.583 282.873,163.583 283.5,164.5C 282.476,165.852 281.476,167.185 280.5,168.5C 280.167,169.5 279.5,170.167 278.5,170.5C 277.094,170.973 276.427,171.973 276.5,173.5C 275.167,174.167 274.167,175.167 273.5,176.5C 271.738,177.262 270.738,178.596 270.5,180.5C 269.094,180.973 268.427,181.973 268.5,183.5C 265.263,185.63 263.263,188.63 262.5,192.5C 259.836,194.484 258.169,197.151 257.5,200.5C 256.559,202.05 255.893,203.716 255.5,205.5C 254.18,207.832 252.513,209.832 250.5,211.5C 241.877,206.044 234.71,199.044 229,190.5C 225.906,184.922 223.072,179.256 220.5,173.5C 220.245,171.033 219.245,169.033 217.5,167.5C 217.233,165.035 216.566,162.701 215.5,160.5C 215.065,157.843 214.065,155.509 212.5,153.5C 211.456,148.644 210.123,143.978 208.5,139.5C 208.741,137.102 208.074,135.102 206.5,133.5C 206.416,130.673 205.75,128.006 204.5,125.5C 204.472,122.084 203.472,119.084 201.5,116.5C 201.88,114.302 201.213,112.635 199.5,111.5C 199.072,108.215 198.072,105.215 196.5,102.5C 196.573,100.973 195.906,99.9731 194.5,99.5C 193.736,96.9823 192.736,94.649 191.5,92.5C 191.262,90.5956 190.262,89.2623 188.5,88.5C 188.068,87.2905 187.401,86.2905 186.5,85.5C 186.573,83.9731 185.906,82.9731 184.5,82.5C 182.844,80.5398 181.177,78.5398 179.5,76.5C 192.104,74.849 204.77,74.1824 217.5,74.5 Z"/></g>
<g><path style="opacity:1" fill="#cccbb2" d="M 217.5,74.5 C 221.514,74.3345 225.514,74.5012 229.5,75C 230.737,75.2321 231.737,75.7321 232.5,76.5C 227.269,76.5557 222.269,75.889 217.5,74.5 Z"/></g>
<g><path style="opacity:1" fill="#d8d7c5" d="M 243.5,78.5 C 245.898,78.2594 247.898,78.9261 249.5,80.5C 247.102,80.7406 245.102,80.0739 243.5,78.5 Z"/></g>
<g><path style="opacity:1" fill="#d6d5c1" d="M 184.5,82.5 C 185.906,82.9731 186.573,83.9731 186.5,85.5C 185.094,85.0269 184.427,84.0269 184.5,82.5 Z"/></g>
<g><path style="opacity:1" fill="#d5d4bf" d="M 188.5,88.5 C 190.262,89.2623 191.262,90.5956 191.5,92.5C 189.738,91.7377 188.738,90.4044 188.5,88.5 Z"/></g>
<g><path style="opacity:1" fill="#d6d5c1" d="M 194.5,99.5 C 195.906,99.9731 196.573,100.973 196.5,102.5C 195.094,102.027 194.427,101.027 194.5,99.5 Z"/></g>
<g><path style="opacity:1" fill="#dad9c8" d="M 199.5,111.5 C 201.213,112.635 201.88,114.302 201.5,116.5C 200.463,115.07 199.796,113.403 199.5,111.5 Z"/></g>
<g><path style="opacity:1" fill="#d7d6c3" d="M 404.5,116.5 C 410.013,115.184 415.68,115.184 421.5,116.5C 421.376,117.107 421.043,117.44 420.5,117.5C 415.36,116.512 410.026,116.179 404.5,116.5 Z"/></g>
<g><path style="opacity:1" fill="#fefefe" d="M 404.5,116.5 C 410.026,116.179 415.36,116.512 420.5,117.5C 418.674,119.147 417.34,121.147 416.5,123.5C 414.412,125.336 413.079,127.669 412.5,130.5C 410.345,132.617 409.345,135.284 409.5,138.5C 407.926,140.102 407.259,142.102 407.5,144.5C 406.033,148.702 405.033,153.035 404.5,157.5C 402.222,163.844 401.222,170.511 401.5,177.5C 399.99,186.426 398.99,195.426 398.5,204.5C 396.71,212.684 395.043,221.017 393.5,229.5C 392.699,231.042 392.366,232.708 392.5,234.5C 391.076,236.515 390.41,238.848 390.5,241.5C 389.833,241.5 389.5,241.833 389.5,242.5C 388.883,242.611 388.383,242.944 388,243.5C 387.261,246.546 386.428,249.546 385.5,252.5C 384.242,254.687 383.242,257.02 382.5,259.5C 380.75,260.659 379.75,262.326 379.5,264.5C 378.512,265.795 377.512,267.128 376.5,268.5C 375.094,268.973 374.427,269.973 374.5,271.5C 373.5,271.833 372.833,272.5 372.5,273.5C 369.833,275.5 367.5,277.833 365.5,280.5C 363.251,281.08 361.585,282.413 360.5,284.5C 356.034,286.566 351.701,288.9 347.5,291.5C 344.053,292.083 341.053,293.416 338.5,295.5C 335.99,295.927 333.657,296.593 331.5,297.5C 329.435,297.517 327.435,297.85 325.5,298.5C 321.96,298.753 318.627,299.419 315.5,300.5C 309.063,302.039 302.396,302.706 295.5,302.5C 295.368,299.43 295.701,296.43 296.5,293.5C 296.927,290.99 297.593,288.657 298.5,286.5C 300.701,282.886 302.034,278.886 302.5,274.5C 302.328,273.508 302.662,272.842 303.5,272.5C 305.074,270.898 305.741,268.898 305.5,266.5C 306.537,265.07 307.204,263.403 307.5,261.5C 308.047,258.298 309.047,255.298 310.5,252.5C 312.245,250.967 313.245,248.967 313.5,246.5C 313.557,245.391 313.89,244.391 314.5,243.5C 316.559,241.74 317.892,239.406 318.5,236.5C 318.971,234.421 319.637,232.421 320.5,230.5C 323.375,228.751 324.708,226.085 324.5,222.5C 325.906,222.027 326.573,221.027 326.5,219.5C 326.992,217.181 327.992,215.181 329.5,213.5C 330.906,213.027 331.573,212.027 331.5,210.5C 331.328,209.508 331.662,208.842 332.5,208.5C 334.931,206.954 336.264,204.621 336.5,201.5C 336.427,199.973 337.094,198.973 338.5,198.5C 340.326,196.853 341.66,194.853 342.5,192.5C 342.893,190.716 343.559,189.05 344.5,187.5C 349.778,180.543 355.111,173.543 360.5,166.5C 360.167,166.167 359.833,165.833 359.5,165.5C 352.403,172.257 346.07,179.591 340.5,187.5C 338.738,188.262 337.738,189.596 337.5,191.5C 334.677,192.992 333.01,195.326 332.5,198.5C 331.5,198.833 330.833,199.5 330.5,200.5C 328.75,201.659 327.75,203.326 327.5,205.5C 326.094,205.973 325.427,206.973 325.5,208.5C 322.421,211.65 320.087,215.317 318.5,219.5C 316.076,222.008 314.41,225.008 313.5,228.5C 311.076,231.008 309.41,234.008 308.5,237.5C 307.833,239.167 307.167,240.833 306.5,242.5C 304.229,244.612 302.896,247.279 302.5,250.5C 301.559,252.05 300.893,253.716 300.5,255.5C 298.755,257.033 297.755,259.033 297.5,261.5C 297.204,263.403 296.537,265.07 295.5,266.5C 293.755,268.033 292.755,270.033 292.5,272.5C 291.833,275.167 291.167,277.833 290.5,280.5C 288,283.66 286.667,287.327 286.5,291.5C 285.662,291.842 285.328,292.508 285.5,293.5C 283.446,296.008 282.446,299.008 282.5,302.5C 280.963,308.17 279.296,313.836 277.5,319.5C 274.894,320.652 272.227,320.818 269.5,320C 268.248,318.172 268.248,316.339 269.5,314.5C 271.213,313.365 271.88,311.698 271.5,309.5C 273.074,307.898 273.741,305.898 273.5,303.5C 273.5,303.167 273.5,302.833 273.5,302.5C 275.834,300.824 276.834,298.491 276.5,295.5C 277.342,292.846 277.842,290.179 278,287.5C 272.482,282.165 267.982,276.165 264.5,269.5C 264.573,267.973 263.906,266.973 262.5,266.5C 262.065,263.843 261.065,261.509 259.5,259.5C 255.127,245.666 254.46,231.666 257.5,217.5C 258.871,215.064 259.871,212.397 260.5,209.5C 261.537,208.07 262.204,206.403 262.5,204.5C 264.544,198.745 267.377,193.412 271,188.5C 273.285,185.568 275.785,182.902 278.5,180.5C 281.243,178.761 283.243,176.427 284.5,173.5C 288.771,170.899 292.437,167.566 295.5,163.5C 295.5,162.833 295.833,162.5 296.5,162.5C 298.749,161.92 300.415,160.587 301.5,158.5C 303.918,155.453 306.918,153.12 310.5,151.5C 312.027,151.573 313.027,150.906 313.5,149.5C 315.336,147.412 317.669,146.079 320.5,145.5C 322.632,145.446 323.965,144.446 324.5,142.5C 325.514,141.326 326.847,140.66 328.5,140.5C 330.027,140.573 331.027,139.906 331.5,138.5C 335.165,138.498 338.165,137.165 340.5,134.5C 346.039,133.109 351.039,130.776 355.5,127.5C 356.167,127.5 356.833,127.5 357.5,127.5C 360.397,126.871 363.064,125.871 365.5,124.5C 368.725,123.193 372.059,122.193 375.5,121.5C 380.49,120.835 385.49,120.168 390.5,119.5C 392.333,119.415 393.666,118.748 394.5,117.5C 397.786,116.793 401.119,116.46 404.5,116.5 Z"/></g>
<g><path style="opacity:1" fill="#e6e5d9" d="M 394.5,117.5 C 393.666,118.748 392.333,119.415 390.5,119.5C 385.49,120.168 380.49,120.835 375.5,121.5C 381.551,119.431 387.884,118.097 394.5,117.5 Z"/></g>
<g><path style="opacity:1" fill="#d4d3bd" d="M 201.5,116.5 C 203.472,119.084 204.472,122.084 204.5,125.5C 202.69,122.855 201.69,119.855 201.5,116.5 Z"/></g>
<g><path style="opacity:1" fill="#c5c3a6" d="M 253.5,122.5 C 252.662,122.842 252.328,123.508 252.5,124.5C 248.161,120.494 243.828,116.494 239.5,112.5C 239.833,112.167 240.167,111.833 240.5,111.5C 245.171,114.844 249.505,118.51 253.5,122.5 Z"/></g>
<g><path style="opacity:1" fill="#d8d7c4" d="M 365.5,124.5 C 363.064,125.871 360.397,126.871 357.5,127.5C 359.617,125.345 362.284,124.345 365.5,124.5 Z"/></g>
<g><path style="opacity:1" fill="#c9c7ad" d="M 416.5,123.5 C 416.264,126.621 414.931,128.954 412.5,130.5C 413.079,127.669 414.412,125.336 416.5,123.5 Z"/></g>
<g><path style="opacity:1" fill="#e6e6da" d="M 262.5,129.5 C 265.167,130.167 266.833,131.833 267.5,134.5C 265.5,133.167 263.833,131.5 262.5,129.5 Z"/></g>
<g><path style="opacity:1" fill="#e6e5d9" d="M 327.5,127.5 C 329.975,128.687 330.975,130.687 330.5,133.5C 329.5,133.5 328.5,133.5 327.5,133.5C 328.091,132.849 328.757,132.182 329.5,131.5C 328.37,130.378 327.703,129.044 327.5,127.5 Z"/></g>
<g><path style="opacity:1" fill="#e4e4d7" d="M 257.5,130.5 C 259.914,131.911 261.581,133.911 262.5,136.5C 260.086,135.089 258.419,133.089 257.5,130.5 Z"/></g>
<g><path style="opacity:1" fill="#deddcd" d="M 355.5,127.5 C 351.039,130.776 346.039,133.109 340.5,134.5C 345.081,131.378 350.081,129.044 355.5,127.5 Z"/></g>
<g><path style="opacity:1" fill="#cccab1" d="M 267.5,134.5 C 269.5,135.833 271.167,137.5 272.5,139.5C 269.833,138.833 268.167,137.167 267.5,134.5 Z"/></g>
<g><path style="opacity:1" fill="#e0dfd0" d="M 412.5,130.5 C 411.871,133.397 410.871,136.064 409.5,138.5C 409.345,135.284 410.345,132.617 412.5,130.5 Z"/></g>
<g><path style="opacity:1" fill="#e8e7dc" d="M 340.5,134.5 C 338.165,137.165 335.165,138.498 331.5,138.5C 334.088,136.408 337.088,135.075 340.5,134.5 Z"/></g>
<g><path style="opacity:1" fill="#cdccb4" d="M 206.5,133.5 C 208.074,135.102 208.741,137.102 208.5,139.5C 206.926,137.898 206.259,135.898 206.5,133.5 Z"/></g>
<g><path style="opacity:1" fill="#d2d1bb" d="M 319.5,138.5 C 319.027,139.906 318.027,140.573 316.5,140.5C 316.973,139.094 317.973,138.427 319.5,138.5 Z"/></g>
<g><path style="opacity:1" fill="#dbdac9" d="M 331.5,138.5 C 331.027,139.906 330.027,140.573 328.5,140.5C 328.973,139.094 329.973,138.427 331.5,138.5 Z"/></g>
<g><path style="opacity:1" fill="#e4e3d6" d="M 324.5,142.5 C 323.965,144.446 322.632,145.446 320.5,145.5C 321.035,143.554 322.368,142.554 324.5,142.5 Z"/></g>
<g><path style="opacity:1" fill="#d1d0ba" d="M 409.5,138.5 C 409.741,140.898 409.074,142.898 407.5,144.5C 407.259,142.102 407.926,140.102 409.5,138.5 Z"/></g>
<g><path style="opacity:1" fill="#d4d3bd" d="M 311.5,143.5 C 311.027,144.906 310.027,145.573 308.5,145.5C 308.973,144.094 309.973,143.427 311.5,143.5 Z"/></g>
<g><path style="opacity:1" fill="#e3e2d4" d="M 269.5,144.5 C 271.587,145.585 272.92,147.251 273.5,149.5C 271.413,148.415 270.08,146.749 269.5,144.5 Z"/></g>
<g><path style="opacity:1" fill="#dfdece" d="M 313.5,149.5 C 313.027,150.906 312.027,151.573 310.5,151.5C 310.973,150.094 311.973,149.427 313.5,149.5 Z"/></g>
<g><path style="opacity:1" fill="#cdccb3" d="M 212.5,153.5 C 214.065,155.509 215.065,157.843 215.5,160.5C 213.166,158.824 212.166,156.491 212.5,153.5 Z"/></g>
<g><path style="opacity:1" fill="#e8e7db" d="M 301.5,158.5 C 300.415,160.587 298.749,161.92 296.5,162.5C 297.585,160.413 299.251,159.08 301.5,158.5 Z"/></g>
<g><path style="opacity:1" fill="#cfceb6" d="M 404.5,157.5 C 404.246,164.407 403.246,171.074 401.5,177.5C 401.222,170.511 402.222,163.844 404.5,157.5 Z"/></g>
<g><path style="opacity:1" fill="#d5d4bf" d="M 282.5,161.5 C 284.377,162.659 284.877,164.326 284,166.5C 283.184,167.823 282.017,168.489 280.5,168.5C 281.476,167.185 282.476,165.852 283.5,164.5C 282.873,163.583 282.539,162.583 282.5,161.5 Z"/></g>
<g><path style="opacity:1" fill="#c5c3a7" d="M 152.5,171.5 C 159.989,170.344 167.655,170.178 175.5,171C 181.449,171.484 187.116,172.651 192.5,174.5C 188.865,173.886 185.198,173.552 181.5,173.5C 179.369,172.686 177.036,172.186 174.5,172C 167.174,171.5 159.841,171.334 152.5,171.5 Z"/></g>
<g><path style="opacity:1" fill="#ebebe2" d="M 295.5,163.5 C 292.437,167.566 288.771,170.899 284.5,173.5C 287.563,169.434 291.229,166.101 295.5,163.5 Z"/></g>
<g><path style="opacity:1" fill="#e7e7db" d="M 150.5,172.5 C 150.842,171.662 151.508,171.328 152.5,171.5C 159.841,171.334 167.174,171.5 174.5,172C 177.036,172.186 179.369,172.686 181.5,173.5C 171.185,172.733 160.852,172.399 150.5,172.5 Z"/></g>
<g><path style="opacity:1" fill="#d5d4c0" d="M 278.5,170.5 C 278.573,172.027 277.906,173.027 276.5,173.5C 276.427,171.973 277.094,170.973 278.5,170.5 Z"/></g>
<g><path style="opacity:1" fill="#fefefe" d="M 150.5,172.5 C 160.852,172.399 171.185,172.733 181.5,173.5C 185.198,173.552 188.865,173.886 192.5,174.5C 196.985,174.934 201.318,175.934 205.5,177.5C 211.817,191.46 220.15,204.127 230.5,215.5C 233.299,218.637 236.632,220.971 240.5,222.5C 240.334,231.173 240.5,239.84 241,248.5C 241.278,249.416 241.778,250.082 242.5,250.5C 242.5,250.833 242.5,251.167 242.5,251.5C 242.335,254.518 242.502,257.518 243,260.5C 243.2,262.32 244.034,263.653 245.5,264.5C 248.893,274.122 254.06,282.788 261,290.5C 261.78,292.387 261.613,294.054 260.5,295.5C 258.528,298.084 257.528,301.084 257.5,304.5C 256.677,306.987 255.677,309.321 254.5,311.5C 253.357,314.976 253.19,318.642 254,322.5C 254.037,324.974 254.87,326.974 256.5,328.5C 257.945,330.063 259.611,331.396 261.5,332.5C 263.78,334.223 266.447,334.889 269.5,334.5C 274.483,337.087 279.483,337.087 284.5,334.5C 285.5,334.5 286.5,334.5 287.5,334.5C 287.832,379.67 287.499,424.67 286.5,469.5C 285.833,469.167 285.167,468.833 284.5,468.5C 283.833,465.833 282.167,464.167 279.5,463.5C 278.833,463.5 278.5,463.167 278.5,462.5C 277.415,460.413 275.749,459.08 273.5,458.5C 265.931,453.555 258.265,448.888 250.5,444.5C 250.027,443.094 249.027,442.427 247.5,442.5C 244.977,441.199 242.31,440.199 239.5,439.5C 237.165,436.835 234.165,435.502 230.5,435.5C 228.035,435.233 225.701,434.566 223.5,433.5C 219.498,431.39 215.165,430.057 210.5,429.5C 207.061,429.212 203.728,428.546 200.5,427.5C 194.471,425.366 188.138,424.366 181.5,424.5C 178.5,424.5 175.5,424.5 172.5,424.5C 165.679,423.671 158.679,423.171 151.5,423C 148.692,421.684 146.359,419.85 144.5,417.5C 143.94,415.199 143.44,412.866 143,410.5C 142.5,334.167 142.333,257.834 142.5,181.5C 143.01,178.326 144.677,175.992 147.5,174.5C 149.027,174.573 150.027,173.906 150.5,172.5 Z"/></g>
<g><path style="opacity:1" fill="#d9d8c6" d="M 217.5,167.5 C 219.245,169.033 220.245,171.033 220.5,173.5C 218.755,171.967 217.755,169.967 217.5,167.5 Z"/></g>
<g><path style="opacity:1" fill="#fefefe" d="M 458.5,414.5 C 457.094,414.973 456.427,415.973 456.5,417.5C 454.5,419.167 452.5,420.833 450.5,422.5C 435.638,422.996 420.971,424.329 406.5,426.5C 404.735,427.461 402.735,427.795 400.5,427.5C 392.481,428.55 384.815,430.55 377.5,433.5C 376.167,433.833 374.833,434.167 373.5,434.5C 370.088,435.075 367.088,436.408 364.5,438.5C 363.391,438.557 362.391,438.89 361.5,439.5C 357.376,440.399 353.709,442.066 350.5,444.5C 349.167,445.167 347.833,445.833 346.5,446.5C 344.973,446.427 343.973,447.094 343.5,448.5C 342.508,448.328 341.842,448.662 341.5,449.5C 339.973,449.427 338.973,450.094 338.5,451.5C 334.59,453.088 331.257,455.421 328.5,458.5C 326.251,459.08 324.585,460.413 323.5,462.5C 322.5,462.833 321.833,463.5 321.5,464.5C 318.907,465.754 316.573,467.42 314.5,469.5C 313.501,418.669 313.168,367.669 313.5,316.5C 315.415,316.784 317.081,316.451 318.5,315.5C 325.466,313.727 332.466,312.061 339.5,310.5C 342.716,310.655 345.383,309.655 347.5,307.5C 350.038,306.957 352.372,305.957 354.5,304.5C 357.393,304.969 359.393,303.969 360.5,301.5C 379.51,290.469 393.177,274.802 401.5,254.5C 403.074,252.898 403.741,250.898 403.5,248.5C 405.591,240.545 407.591,232.545 409.5,224.5C 410.323,221.316 410.99,217.983 411.5,214.5C 411.401,211.763 411.735,209.096 412.5,206.5C 413.117,206.389 413.617,206.056 414,205.5C 414.499,199.843 414.666,194.176 414.5,188.5C 415.335,183.168 416.335,177.835 417.5,172.5C 428.155,171.595 438.821,171.428 449.5,172C 454,173.833 457.167,177 459,181.5C 459.827,259.207 459.661,336.874 458.5,414.5 Z"/></g>
<g><path style="opacity:1" fill="#deddcd" d="M 150.5,172.5 C 150.027,173.906 149.027,174.573 147.5,174.5C 147.973,173.094 148.973,172.427 150.5,172.5 Z"/></g>
<g><path style="opacity:1" fill="#e7e6db" d="M 284.5,173.5 C 283.243,176.427 281.243,178.761 278.5,180.5C 279.757,177.573 281.757,175.239 284.5,173.5 Z"/></g>
<g><path style="opacity:1" fill="#d2d0ba" d="M 273.5,176.5 C 273.262,178.404 272.262,179.738 270.5,180.5C 270.738,178.596 271.738,177.262 273.5,176.5 Z"/></g>
<g><path style="opacity:1" fill="#c5c3a6" d="M 344.5,187.5 C 344.631,186.624 344.298,185.957 343.5,185.5C 342.482,186.193 341.482,186.859 340.5,187.5C 346.07,179.591 352.403,172.257 359.5,165.5C 359.833,165.833 360.167,166.167 360.5,166.5C 355.111,173.543 349.778,180.543 344.5,187.5 Z"/></g>
<g><path style="opacity:1" fill="#e8e7dc" d="M 142.5,181.5 C 142.333,257.834 142.5,334.167 143,410.5C 143.44,412.866 143.94,415.199 144.5,417.5C 142.933,416.319 142.099,414.653 142,412.5C 141.168,335.332 141.334,258.332 142.5,181.5 Z"/></g>
<g><path style="opacity:1" fill="#c5c3a7" d="M 268.5,183.5 C 266.787,185.907 265.453,188.574 264.5,191.5C 264.043,192.298 263.376,192.631 262.5,192.5C 263.263,188.63 265.263,185.63 268.5,183.5 Z"/></g>
<g><path style="opacity:1" fill="#cecdb5" d="M 337.5,191.5 C 336.214,194.117 334.547,196.45 332.5,198.5C 333.01,195.326 334.677,192.992 337.5,191.5 Z"/></g>
<g><path style="opacity:1" fill="#cbc9b0" d="M 262.5,192.5 C 261.32,194.693 260.32,197.026 259.5,199.5C 259.043,200.298 258.376,200.631 257.5,200.5C 258.169,197.151 259.836,194.484 262.5,192.5 Z"/></g>
<g><path style="opacity:1" fill="#e4e3d6" d="M 342.5,192.5 C 341.66,194.853 340.326,196.853 338.5,198.5C 338.845,195.802 340.178,193.802 342.5,192.5 Z"/></g>
<g><path style="opacity:1" fill="#e6e5d9" d="M 414.5,188.5 C 414.666,194.176 414.499,199.843 414,205.5C 413.617,206.056 413.117,206.389 412.5,206.5C 412.982,200.34 413.649,194.34 414.5,188.5 Z"/></g>
<g><path style="opacity:1" fill="#c9c7ad" d="M 330.5,200.5 C 330.408,202.848 329.408,204.514 327.5,205.5C 327.75,203.326 328.75,201.659 330.5,200.5 Z"/></g>
<g><path style="opacity:1" fill="#e8e7dc" d="M 336.5,201.5 C 336.264,204.621 334.931,206.954 332.5,208.5C 333.079,205.669 334.412,203.336 336.5,201.5 Z"/></g>
<g><path style="opacity:1" fill="#d3d2bc" d="M 262.5,204.5 C 262.204,206.403 261.537,208.07 260.5,209.5C 260.12,207.302 260.787,205.635 262.5,204.5 Z"/></g>
<g><path style="opacity:1" fill="#e1e0d2" d="M 255.5,205.5 C 255.039,207.55 254.372,209.55 253.5,211.5C 252.386,212.776 251.386,212.776 250.5,211.5C 252.513,209.832 254.18,207.832 255.5,205.5 Z"/></g>
<g><path style="opacity:1" fill="#d4d3be" d="M 260.5,209.5 C 259.871,212.397 258.871,215.064 257.5,217.5C 257.345,214.284 258.345,211.617 260.5,209.5 Z"/></g>
<g><path style="opacity:1" fill="#dedccc" d="M 331.5,210.5 C 331.573,212.027 330.906,213.027 329.5,213.5C 329.427,211.973 330.094,210.973 331.5,210.5 Z"/></g>
<g><path style="opacity:1" fill="#c2c1a3" d="M 398.5,204.5 C 398.255,211.562 397.422,218.562 396,225.5C 395.066,226.858 394.232,228.192 393.5,229.5C 395.043,221.017 396.71,212.684 398.5,204.5 Z"/></g>
<g><path style="opacity:1" fill="#c5c3a6" d="M 325.5,208.5 C 324.41,213.026 322.077,216.692 318.5,219.5C 320.087,215.317 322.421,211.65 325.5,208.5 Z"/></g>
<g><path style="opacity:1" fill="#cfceb7" d="M 411.5,214.5 C 410.99,217.983 410.323,221.316 409.5,224.5C 408.931,220.671 409.598,217.337 411.5,214.5 Z"/></g>
<g><path style="opacity:1" fill="#d7d5c2" d="M 326.5,219.5 C 326.573,221.027 325.906,222.027 324.5,222.5C 324.427,220.973 325.094,219.973 326.5,219.5 Z"/></g>
<g><path style="opacity:1" fill="#e3e3d5" d="M 118.5,223.5 C 112.014,223.081 105.681,223.748 99.5,225.5C 100.347,224.034 101.68,223.2 103.5,223C 108.684,222.184 113.684,222.35 118.5,223.5 Z"/></g>
<g><path style="opacity:1" fill="#fefefe" d="M 118.5,223.5 C 118.17,288.238 118.504,352.905 119.5,417.5C 119.755,419.967 120.755,421.967 122.5,423.5C 123.363,425.421 124.029,427.421 124.5,429.5C 125.08,431.749 126.413,433.415 128.5,434.5C 130.884,436.885 133.55,438.885 136.5,440.5C 136.973,441.906 137.973,442.573 139.5,442.5C 144.026,445.243 149.026,446.576 154.5,446.5C 154.918,447.222 155.584,447.722 156.5,448C 166.501,448.553 176.501,449.053 186.5,449.5C 194.823,450.831 203.156,452.164 211.5,453.5C 213.509,455.065 215.843,456.065 218.5,456.5C 219.391,457.11 220.391,457.443 221.5,457.5C 225.478,459.721 229.811,461.388 234.5,462.5C 236.05,463.441 237.716,464.107 239.5,464.5C 239.973,465.906 240.973,466.573 242.5,466.5C 250.143,470.993 257.476,475.993 264.5,481.5C 264.631,482.239 264.464,482.906 264,483.5C 260.281,482.352 256.448,481.686 252.5,481.5C 243.702,480.402 235.035,479.402 226.5,478.5C 208.338,477.338 190.005,477.171 171.5,478C 168.964,478.186 166.631,478.686 164.5,479.5C 158.723,479.597 153.057,480.264 147.5,481.5C 137.773,481.695 128.44,483.361 119.5,486.5C 119.167,486.5 118.833,486.5 118.5,486.5C 113.537,487.254 108.537,487.587 103.5,487.5C 98.4675,485.801 95.1342,482.468 93.5,477.5C 93.1723,395.126 93.5056,312.792 94.5,230.5C 95.8333,228.5 97.5,226.833 99.5,225.5C 105.681,223.748 112.014,223.081 118.5,223.5 Z"/></g>
<g><path style="opacity:1" fill="#fefefe" d="M 496.5,223.5 C 500.323,224.246 503.323,226.246 505.5,229.5C 506.06,231.801 506.56,234.134 507,236.5C 507.5,316.499 507.667,396.499 507.5,476.5C 504.348,485.416 498.015,489.249 488.5,488C 482.239,486.381 475.905,485.214 469.5,484.5C 465.117,482.77 460.45,481.77 455.5,481.5C 451.802,481.448 448.135,481.114 444.5,480.5C 443.737,479.732 442.737,479.232 441.5,479C 435.843,478.501 430.176,478.334 424.5,478.5C 406.693,477.201 389.027,477.201 371.5,478.5C 367.183,478.083 363.183,478.75 359.5,480.5C 356.287,480.19 353.287,480.523 350.5,481.5C 346.21,481.198 342.21,481.864 338.5,483.5C 337.167,483.5 336.5,482.833 336.5,481.5C 340.172,478.004 344.172,475.004 348.5,472.5C 350.027,472.573 351.027,471.906 351.5,470.5C 356.016,467.073 361.016,464.407 366.5,462.5C 371.144,461.401 375.478,459.734 379.5,457.5C 381.302,456.542 383.302,455.875 385.5,455.5C 388.916,455.472 391.916,454.472 394.5,452.5C 398.112,451.578 401.779,450.911 405.5,450.5C 412.736,450.235 419.736,449.235 426.5,447.5C 427.833,447.5 429.167,447.5 430.5,447.5C 436.842,447.666 443.175,447.5 449.5,447C 450.737,446.768 451.737,446.268 452.5,445.5C 452.833,445.5 453.167,445.5 453.5,445.5C 456.811,445.693 459.478,444.693 461.5,442.5C 465.143,439.865 468.81,437.199 472.5,434.5C 474.587,433.415 475.92,431.749 476.5,429.5C 479.701,423.564 481.701,417.23 482.5,410.5C 483.499,348.336 483.832,286.002 483.5,223.5C 487.833,223.5 492.167,223.5 496.5,223.5 Z"/></g>
<g><path style="opacity:1" fill="#ebebe2" d="M 496.5,223.5 C 492.167,223.5 487.833,223.5 483.5,223.5C 483.832,286.002 483.499,348.336 482.5,410.5C 482.5,347.833 482.5,285.167 482.5,222.5C 487.363,222.181 492.03,222.514 496.5,223.5 Z"/></g>
<g><path style="opacity:1" fill="#c4c3a6" d="M 318.5,219.5 C 318.082,223.349 316.415,226.349 313.5,228.5C 314.41,225.008 316.076,222.008 318.5,219.5 Z"/></g>
<g><path style="opacity:1" fill="#e7e6da" d="M 324.5,222.5 C 324.708,226.085 323.375,228.751 320.5,230.5C 321.326,227.515 322.659,224.849 324.5,222.5 Z"/></g>
<g><path style="opacity:1" fill="#c8c7ac" d="M 240.5,222.5 C 241.276,231.682 241.942,241.015 242.5,250.5C 241.778,250.082 241.278,249.416 241,248.5C 240.5,239.84 240.334,231.173 240.5,222.5 Z"/></g>
<g><path style="opacity:1" fill="#cbcab0" d="M 313.5,228.5 C 313.082,232.349 311.415,235.349 308.5,237.5C 309.41,234.008 311.076,231.008 313.5,228.5 Z"/></g>
<g><path style="opacity:1" fill="#d2d1bb" d="M 94.5,230.5 C 93.5056,312.792 93.1723,395.126 93.5,477.5C 92.3344,395.668 92.1677,313.668 93,231.5C 93.3826,230.944 93.8826,230.611 94.5,230.5 Z"/></g>
<g><path style="opacity:1" fill="#cbcab0" d="M 392.5,234.5 C 392.59,237.152 391.924,239.485 390.5,241.5C 390.41,238.848 391.076,236.515 392.5,234.5 Z"/></g>
<g><path style="opacity:1" fill="#e0dfcf" d="M 505.5,229.5 C 506.79,230.058 507.623,231.058 508,232.5C 508.832,314.001 508.666,395.334 507.5,476.5C 507.667,396.499 507.5,316.499 507,236.5C 506.56,234.134 506.06,231.801 505.5,229.5 Z"/></g>
<g><path style="opacity:1" fill="#e5e4d7" d="M 318.5,236.5 C 317.892,239.406 316.559,241.74 314.5,243.5C 315.108,240.594 316.441,238.26 318.5,236.5 Z"/></g>
<g><path style="opacity:1" fill="#c9c7ad" d="M 306.5,242.5 C 306.104,245.721 304.771,248.388 302.5,250.5C 302.896,247.279 304.229,244.612 306.5,242.5 Z"/></g>
<g><path style="opacity:1" fill="#e4e4d7" d="M 389.5,242.5 C 389.118,246.332 387.785,249.665 385.5,252.5C 386.428,249.546 387.261,246.546 388,243.5C 388.383,242.944 388.883,242.611 389.5,242.5 Z"/></g>
<g><path style="opacity:1" fill="#d6d5c1" d="M 313.5,246.5 C 313.245,248.967 312.245,250.967 310.5,252.5C 310.755,250.033 311.755,248.033 313.5,246.5 Z"/></g>
<g><path style="opacity:1" fill="#e6e5d9" d="M 403.5,248.5 C 403.741,250.898 403.074,252.898 401.5,254.5C 401.259,252.102 401.926,250.102 403.5,248.5 Z"/></g>
<g><path style="opacity:1" fill="#e8e7dc" d="M 242.5,251.5 C 243.608,255.692 244.608,260.025 245.5,264.5C 244.034,263.653 243.2,262.32 243,260.5C 242.502,257.518 242.335,254.518 242.5,251.5 Z"/></g>
<g><path style="opacity:1" fill="#cecdb5" d="M 300.5,255.5 C 300.245,257.967 299.245,259.967 297.5,261.5C 297.755,259.033 298.755,257.033 300.5,255.5 Z"/></g>
<g><path style="opacity:1" fill="#d5d4c0" d="M 307.5,261.5 C 307.204,263.403 306.537,265.07 305.5,266.5C 305.12,264.302 305.787,262.635 307.5,261.5 Z"/></g>
<g><path style="opacity:1" fill="#c9c8ae" d="M 382.5,259.5 C 382.408,261.848 381.408,263.514 379.5,264.5C 379.75,262.326 380.75,260.659 382.5,259.5 Z"/></g>
<g><path style="opacity:1" fill="#cac9af" d="M 259.5,259.5 C 261.065,261.509 262.065,263.843 262.5,266.5C 260.166,264.824 259.166,262.491 259.5,259.5 Z"/></g>
<g><path style="opacity:1" fill="#dbdac8" d="M 262.5,266.5 C 263.906,266.973 264.573,267.973 264.5,269.5C 263.094,269.027 262.427,268.027 262.5,266.5 Z"/></g>
<g><path style="opacity:1" fill="#e0dfd0" d="M 295.5,266.5 C 295.245,268.967 294.245,270.967 292.5,272.5C 292.755,270.033 293.755,268.033 295.5,266.5 Z"/></g>
<g><path style="opacity:1" fill="#e4e4d7" d="M 305.5,266.5 C 305.741,268.898 305.074,270.898 303.5,272.5C 303.259,270.102 303.926,268.102 305.5,266.5 Z"/></g>
<g><path style="opacity:1" fill="#d2d0ba" d="M 376.5,268.5 C 376.573,270.027 375.906,271.027 374.5,271.5C 374.427,269.973 375.094,268.973 376.5,268.5 Z"/></g>
<g><path style="opacity:1" fill="#c8c7ac" d="M 372.5,273.5 C 371.167,276.833 368.833,279.167 365.5,280.5C 367.5,277.833 369.833,275.5 372.5,273.5 Z"/></g>
<g><path style="opacity:1" fill="#ceccb4" d="M 365.5,280.5 C 364.415,282.587 362.749,283.92 360.5,284.5C 361.585,282.413 363.251,281.08 365.5,280.5 Z"/></g>
<g><path style="opacity:1" fill="#d4d2bd" d="M 302.5,274.5 C 302.034,278.886 300.701,282.886 298.5,286.5C 299.017,282.778 299.85,279.112 301,275.5C 301.383,274.944 301.883,274.611 302.5,274.5 Z"/></g>
<g><path style="opacity:1" fill="#d2d0bb" d="M 290.5,280.5 C 289.975,284.533 288.642,288.2 286.5,291.5C 286.667,287.327 288,283.66 290.5,280.5 Z"/></g>
<g><path style="opacity:1" fill="#d8d7c3" d="M 347.5,291.5 C 344.947,293.584 341.947,294.917 338.5,295.5C 341.053,293.416 344.053,292.083 347.5,291.5 Z"/></g>
<g><path style="opacity:1" fill="#e7e6db" d="M 276.5,295.5 C 276.834,298.491 275.834,300.824 273.5,302.5C 273.935,299.843 274.935,297.509 276.5,295.5 Z"/></g>
<g><path style="opacity:1" fill="#cecdb5" d="M 331.5,297.5 C 329.898,299.074 327.898,299.741 325.5,299.5C 325.5,299.167 325.5,298.833 325.5,298.5C 327.435,297.85 329.435,297.517 331.5,297.5 Z"/></g>
<g><path style="opacity:1" fill="#e8e7dc" d="M 285.5,293.5 C 284.946,296.746 283.946,299.746 282.5,302.5C 282.446,299.008 283.446,296.008 285.5,293.5 Z"/></g>
<g><path style="opacity:1" fill="#e7e6db" d="M 325.5,298.5 C 325.5,298.833 325.5,299.167 325.5,299.5C 323.5,299.833 321.5,300.167 319.5,300.5C 318.167,300.5 316.833,300.5 315.5,300.5C 318.627,299.419 321.96,298.753 325.5,298.5 Z"/></g>
<g><path style="opacity:1" fill="#cecdb5" d="M 260.5,295.5 C 260.31,298.855 259.31,301.855 257.5,304.5C 257.528,301.084 258.528,298.084 260.5,295.5 Z"/></g>
<g><path style="opacity:1" fill="#c3c2a4" d="M 296.5,293.5 C 295.701,296.43 295.368,299.43 295.5,302.5C 302.396,302.706 309.063,302.039 315.5,300.5C 316.833,300.5 318.167,300.5 319.5,300.5C 317.438,301.776 315.104,302.61 312.5,303C 306.5,303.667 300.5,303.667 294.5,303C 293.941,302.275 293.608,301.442 293.5,300.5C 293.761,297.708 294.761,295.375 296.5,293.5 Z"/></g>
<g><path style="opacity:1" fill="#e6e5d9" d="M 360.5,301.5 C 359.393,303.969 357.393,304.969 354.5,304.5C 356.426,303.514 358.426,302.514 360.5,301.5 Z"/></g>
<g><path style="opacity:1" fill="#e3e2d4" d="M 273.5,303.5 C 273.741,305.898 273.074,307.898 271.5,309.5C 271.259,307.102 271.926,305.102 273.5,303.5 Z"/></g>
<g><path style="opacity:1" fill="#e7e6da" d="M 347.5,307.5 C 345.383,309.655 342.716,310.655 339.5,310.5C 341.936,309.129 344.603,308.129 347.5,307.5 Z"/></g>
<g><path style="opacity:1" fill="#dfdecf" d="M 271.5,309.5 C 271.88,311.698 271.213,313.365 269.5,314.5C 269.12,312.302 269.787,310.635 271.5,309.5 Z"/></g>
<g><path style="opacity:1" fill="#d4d3bd" d="M 318.5,315.5 C 317.081,316.451 315.415,316.784 313.5,316.5C 312.335,367.998 312.168,419.665 313,471.5C 313.717,470.956 314.217,470.289 314.5,469.5C 316.573,467.42 318.907,465.754 321.5,464.5C 319.006,468.338 315.673,471.005 311.5,472.5C 311.5,420.167 311.5,367.833 311.5,315.5C 313.833,315.5 316.167,315.5 318.5,315.5 Z"/></g>
<g><path style="opacity:1" fill="#f8f8f4" d="M 313.5,316.5 C 313.168,367.669 313.501,418.669 314.5,469.5C 314.217,470.289 313.717,470.956 313,471.5C 312.168,419.665 312.335,367.998 313.5,316.5 Z"/></g>
<g><path style="opacity:1" fill="#dbdac9" d="M 254.5,311.5 C 254.312,317.286 254.978,322.953 256.5,328.5C 254.87,326.974 254.037,324.974 254,322.5C 253.19,318.642 253.357,314.976 254.5,311.5 Z"/></g>
<g><path style="opacity:1" fill="#bbb997" d="M 289.5,472.5 C 290.162,425.155 289.495,378.155 287.5,331.5C 287.821,329.952 288.821,329.285 290.5,329.5C 290.832,377.336 290.499,425.003 289.5,472.5 Z"/></g>
<g><path style="opacity:1" fill="#deddcd" d="M 287.5,332.5 C 287.5,332.167 287.5,331.833 287.5,331.5C 289.495,378.155 290.162,425.155 289.5,472.5C 287.973,472.573 286.973,471.906 286.5,470.5C 287.833,447.843 288.5,424.843 288.5,401.5C 288.5,378.331 288.167,355.331 287.5,332.5 Z"/></g>
<g><path style="opacity:1" fill="#d9d8c5" d="M 261.5,332.5 C 264.428,332.565 267.095,333.232 269.5,334.5C 266.447,334.889 263.78,334.223 261.5,332.5 Z"/></g>
<g><path style="opacity:1" fill="#f9f9f6" d="M 287.5,332.5 C 288.167,355.331 288.5,378.331 288.5,401.5C 288.5,424.843 287.833,447.843 286.5,470.5C 286.5,470.167 286.5,469.833 286.5,469.5C 287.499,424.67 287.832,379.67 287.5,334.5C 286.5,334.5 285.5,334.5 284.5,334.5C 285.29,333.599 286.29,332.932 287.5,332.5 Z"/></g>
<g><path style="opacity:1" fill="#dad8c7" d="M 458.5,414.5 C 458.573,416.027 457.906,417.027 456.5,417.5C 456.427,415.973 457.094,414.973 458.5,414.5 Z"/></g>
<g><path style="opacity:1" fill="#d0ceb7" d="M 119.5,417.5 C 121.245,419.033 122.245,421.033 122.5,423.5C 120.755,421.967 119.755,419.967 119.5,417.5 Z"/></g>
<g><path style="opacity:1" fill="#eaeae0" d="M 181.5,424.5 C 188.138,424.366 194.471,425.366 200.5,427.5C 196.143,427.414 191.81,427.08 187.5,426.5C 185.5,425.833 183.5,425.167 181.5,424.5 Z"/></g>
<g><path style="opacity:1" fill="#cac9af" d="M 450.5,422.5 C 450.389,423.117 450.056,423.617 449.5,424C 435.188,425.268 420.855,426.101 406.5,426.5C 420.971,424.329 435.638,422.996 450.5,422.5 Z"/></g>
<g><path style="opacity:1" fill="#cbc9b0" d="M 172.5,424.5 C 175.5,424.5 178.5,424.5 181.5,424.5C 183.5,425.167 185.5,425.833 187.5,426.5C 182.269,426.556 177.269,425.889 172.5,424.5 Z"/></g>
<g><path style="opacity:1" fill="#e0dfd0" d="M 210.5,429.5 C 215.165,430.057 219.498,431.39 223.5,433.5C 218.835,432.943 214.502,431.61 210.5,429.5 Z"/></g>
<g><path style="opacity:1" fill="#cdcbb2" d="M 400.5,427.5 C 398.981,428.41 397.315,429.243 395.5,430C 389.472,431.122 383.472,432.289 377.5,433.5C 384.815,430.55 392.481,428.55 400.5,427.5 Z"/></g>
<g><path style="opacity:1" fill="#e4e3d6" d="M 124.5,429.5 C 126.587,430.585 127.92,432.251 128.5,434.5C 126.413,433.415 125.08,431.749 124.5,429.5 Z"/></g>
<g><path style="opacity:1" fill="#ddddcc" d="M 476.5,429.5 C 475.92,431.749 474.587,433.415 472.5,434.5C 473.08,432.251 474.413,430.585 476.5,429.5 Z"/></g>
<g><path style="opacity:1" fill="#e7e7db" d="M 230.5,435.5 C 234.165,435.502 237.165,436.835 239.5,439.5C 236.088,438.925 233.088,437.592 230.5,435.5 Z"/></g>
<g><path style="opacity:1" fill="#c9c8ae" d="M 373.5,434.5 C 371.165,437.165 368.165,438.498 364.5,438.5C 367.088,436.408 370.088,435.075 373.5,434.5 Z"/></g>
<g><path style="opacity:1" fill="#cccbb2" d="M 361.5,439.5 C 358.368,442.11 354.701,443.777 350.5,444.5C 353.709,442.066 357.376,440.399 361.5,439.5 Z"/></g>
<g><path style="opacity:1" fill="#d4d3be" d="M 136.5,440.5 C 138.027,440.427 139.027,441.094 139.5,442.5C 137.973,442.573 136.973,441.906 136.5,440.5 Z"/></g>
<g><path style="opacity:1" fill="#deddce" d="M 247.5,442.5 C 249.027,442.427 250.027,443.094 250.5,444.5C 248.973,444.573 247.973,443.906 247.5,442.5 Z"/></g>
<g><path style="opacity:1" fill="#dfdece" d="M 461.5,442.5 C 459.478,444.693 456.811,445.693 453.5,445.5C 455.936,444.129 458.603,443.129 461.5,442.5 Z"/></g>
<g><path style="opacity:1" fill="#e3e2d4" d="M 452.5,445.5 C 451.737,446.268 450.737,446.768 449.5,447C 443.175,447.5 436.842,447.666 430.5,447.5C 437.678,446.689 445.012,446.022 452.5,445.5 Z"/></g>
<g><path style="opacity:1" fill="#edece4" d="M 154.5,446.5 C 165.399,446.533 176.066,447.533 186.5,449.5C 176.501,449.053 166.501,448.553 156.5,448C 155.584,447.722 154.918,447.222 154.5,446.5 Z"/></g>
<g><path style="opacity:1" fill="#d1d0ba" d="M 346.5,446.5 C 346.027,447.906 345.027,448.573 343.5,448.5C 343.973,447.094 344.973,446.427 346.5,446.5 Z"/></g>
<g><path style="opacity:1" fill="#e3e2d4" d="M 426.5,447.5 C 419.736,449.235 412.736,450.235 405.5,450.5C 412.209,448.365 419.209,447.365 426.5,447.5 Z"/></g>
<g><path style="opacity:1" fill="#d3d1bb" d="M 341.5,449.5 C 341.027,450.906 340.027,451.573 338.5,451.5C 338.973,450.094 339.973,449.427 341.5,449.5 Z"/></g>
<g><path style="opacity:1" fill="#e1e0d1" d="M 394.5,452.5 C 391.916,454.472 388.916,455.472 385.5,455.5C 388.145,453.69 391.145,452.69 394.5,452.5 Z"/></g>
<g><path style="opacity:1" fill="#c9c8ae" d="M 211.5,453.5 C 214.491,453.166 216.824,454.166 218.5,456.5C 215.843,456.065 213.509,455.065 211.5,453.5 Z"/></g>
<g><path style="opacity:1" fill="#e7e6db" d="M 273.5,458.5 C 275.749,459.08 277.415,460.413 278.5,462.5C 276.251,461.92 274.585,460.587 273.5,458.5 Z"/></g>
<g><path style="opacity:1" fill="#e2e1d2" d="M 379.5,457.5 C 375.478,459.734 371.144,461.401 366.5,462.5C 366.611,461.883 366.944,461.383 367.5,461C 371.447,459.516 375.447,458.35 379.5,457.5 Z"/></g>
<g><path style="opacity:1" fill="#dcdbca" d="M 221.5,457.5 C 226.324,458.214 230.658,459.88 234.5,462.5C 229.811,461.388 225.478,459.721 221.5,457.5 Z"/></g>
<g><path style="opacity:1" fill="#cbcab0" d="M 328.5,458.5 C 327.415,460.587 325.749,461.92 323.5,462.5C 324.585,460.413 326.251,459.08 328.5,458.5 Z"/></g>
<g><path style="opacity:1" fill="#e6e6da" d="M 279.5,463.5 C 282.167,464.167 283.833,465.833 284.5,468.5C 282.5,467.167 280.833,465.5 279.5,463.5 Z"/></g>
<g><path style="opacity:1" fill="#d7d6c3" d="M 239.5,464.5 C 241.027,464.427 242.027,465.094 242.5,466.5C 240.973,466.573 239.973,465.906 239.5,464.5 Z"/></g>
<g><path style="opacity:1" fill="#dedccb" d="M 351.5,470.5 C 351.027,471.906 350.027,472.573 348.5,472.5C 348.973,471.094 349.973,470.427 351.5,470.5 Z"/></g>
<g><path style="opacity:1" fill="#d6d5c2" d="M 226.5,478.5 C 205.82,478.295 185.153,478.628 164.5,479.5C 166.631,478.686 168.964,478.186 171.5,478C 190.005,477.171 208.338,477.338 226.5,478.5 Z"/></g>
<g><path style="opacity:1" fill="#d9d8c5" d="M 371.5,478.5 C 367.684,479.482 363.684,480.149 359.5,480.5C 363.183,478.75 367.183,478.083 371.5,478.5 Z"/></g>
<g><path style="opacity:1" fill="#e3e2d4" d="M 424.5,478.5 C 430.176,478.334 435.843,478.501 441.5,479C 442.737,479.232 443.737,479.732 444.5,480.5C 437.676,479.995 431.009,479.329 424.5,478.5 Z"/></g>
<g><path style="opacity:1" fill="#cfcdb5" d="M 350.5,481.5 C 346.79,483.136 342.79,483.802 338.5,483.5C 342.21,481.864 346.21,481.198 350.5,481.5 Z"/></g>
<g><path style="opacity:1" fill="#dcdbc9" d="M 252.5,481.5 C 256.448,481.686 260.281,482.352 264,483.5C 264.464,482.906 264.631,482.239 264.5,481.5C 267.232,482.967 267.065,483.967 264,484.5C 259.843,484.184 256.01,483.184 252.5,481.5 Z"/></g>
<g><path style="opacity:1" fill="#d1d0ba" d="M 455.5,481.5 C 460.45,481.77 465.117,482.77 469.5,484.5C 465.51,484.001 461.51,483.501 457.5,483C 456.584,482.722 455.918,482.222 455.5,481.5 Z"/></g>
<g><path style="opacity:1" fill="#cdccb3" d="M 336.5,481.5 C 336.5,482.833 337.167,483.5 338.5,483.5C 336.799,485.423 334.799,485.757 332.5,484.5C 333.467,483.016 334.8,482.016 336.5,481.5 Z"/></g>
<g><path style="opacity:1" fill="#d1d0ba" d="M 147.5,481.5 C 138.41,483.794 129.076,485.461 119.5,486.5C 128.44,483.361 137.773,481.695 147.5,481.5 Z"/></g>
<g><path style="opacity:1" fill="#d1d0b9" d="M 118.5,486.5 C 115.814,487.991 112.814,488.657 109.5,488.5C 107.304,488.495 105.304,488.162 103.5,487.5C 108.537,487.587 113.537,487.254 118.5,486.5 Z"/></g>
</svg>
