<?xml version="1.0" encoding="UTF-8"?>
<!DOCTYPE svg PUBLIC "-//W3C//DTD SVG 1.1//EN" "http://www.w3.org/Graphics/SVG/1.1/DTD/svg11.dtd">
<svg xmlns="http://www.w3.org/2000/svg" version="1.1" width="512px" height="512px" style="shape-rendering:geometricPrecision; text-rendering:geometricPrecision; image-rendering:optimizeQuality; fill-rule:evenodd; clip-rule:evenodd" xmlns:xlink="http://www.w3.org/1999/xlink">
<defs>
  <clipPath id="roundedCorners">
    <rect x="0" y="0" width="512" height="512" rx="128" ry="128"/>
  </clipPath>
</defs>
<g clip-path="url(#roundedCorners)">
<g><path style="opacity:1" fill="#fefefe" d="M -0.5,-0.5 C 170.167,-0.5 340.833,-0.5 511.5,-0.5 C 511.5,170.167 511.5,340.833 511.5,511.5 C 340.833,511.5 170.167,511.5 -0.5,511.5 C -0.5,340.833 -0.5,170.167 -0.5,-0.5 Z" rx="128" ry="128"/></g>
<g><path style="opacity:1" fill="#adbe8b" d="M 180.5,93.5 C 177.113,94.2879 173.78,95.2879 170.5,96.5C 169.624,96.6309 168.957,96.2975 168.5,95.5C 172.278,93.7448 176.278,93.0781 180.5,93.5 Z"/></g>
<g><path style="opacity:1" fill="#95ac69" d="M 180.5,93.5 C 212.211,92.6687 240.544,101.835 265.5,121C 270.635,125.098 274.468,129.931 277,135.5C 266.759,140.705 257.259,147.038 248.5,154.5C 238.802,142.469 227.802,131.802 215.5,122.5C 214.678,120.272 213.345,119.605 211.5,120.5C 212.188,121.855 213.188,122.855 214.5,123.5C 225.645,133.639 235.312,144.973 243.5,157.5C 237.841,164.667 232.341,172 227,179.5C 224.909,183.986 222.742,188.32 220.5,192.5C 210.593,186.093 203.426,177.427 199,166.5C 196.82,160.812 194.653,155.146 192.5,149.5C 191.943,144.835 190.61,140.502 188.5,136.5C 185.595,121.65 179.595,108.317 170.5,96.5C 173.78,95.2879 177.113,94.2879 180.5,93.5 Z"/></g>
<g><path style="opacity:1" fill="#bdcca3" d="M 215.5,122.5 C 214.833,122.5 214.5,122.833 214.5,123.5C 213.188,122.855 212.188,121.855 211.5,120.5C 213.345,119.605 214.678,120.272 215.5,122.5 Z"/></g>
<g><path style="opacity:1" fill="#b0c08f" d="M 340.5,125.5 C 333.668,124.639 326.668,124.639 319.5,125.5C 323.56,123.983 327.893,123.316 332.5,123.5C 335.5,123.833 338.5,124.167 341.5,124.5C 341.376,125.107 341.043,125.44 340.5,125.5 Z"/></g>
<g><path style="opacity:1" fill="#96ac69" d="M 340.5,125.5 C 337.573,130.954 335.24,136.621 333.5,142.5C 332.076,144.515 331.41,146.848 331.5,149.5C 330.578,153.112 329.911,156.779 329.5,160.5C 327.614,167.916 326.614,175.583 326.5,183.5C 324.828,195.029 322.328,206.362 319,217.5C 310.931,237.894 296.097,250.394 274.5,255C 268.191,256.08 261.858,256.914 255.5,257.5C 254.5,257.5 253.5,257.5 252.5,257.5C 252.5,256.167 252.5,254.833 252.5,253.5C 254.277,250.495 255.277,247.162 255.5,243.5C 262.439,220.953 272.106,199.619 284.5,179.5C 289.254,172.9 294.254,166.4 299.5,160C 295.886,161.578 292.719,164.078 290,167.5C 287.283,170.71 284.783,174.044 282.5,177.5C 261.852,205.384 247.518,236.384 239.5,270.5C 237.5,270.5 235.5,270.5 233.5,270.5C 233.993,268.194 234.326,265.861 234.5,263.5C 236.063,258.309 237.73,253.143 239.5,248C 234.761,241.339 230.428,234.506 226.5,227.5C 226.59,224.848 225.924,222.515 224.5,220.5C 221.436,205.767 223.936,192.1 232,179.5C 254.109,150.189 283.276,132.189 319.5,125.5C 326.668,124.639 333.668,124.639 340.5,125.5 Z"/></g>
<g><path style="opacity:1" fill="#d7dfc6" d="M 188.5,136.5 C 190.61,140.502 191.943,144.835 192.5,149.5C 190.39,145.498 189.057,141.165 188.5,136.5 Z"/></g>
<g><path style="opacity:1" fill="#d9e2c8" d="M 333.5,142.5 C 333.59,145.152 332.924,147.485 331.5,149.5C 331.41,146.848 332.076,144.515 333.5,142.5 Z"/></g>
<g><path style="opacity:1" fill="#f0f1ba" d="M 164.5,164.5 C 158.441,164.254 152.441,164.587 146.5,165.5C 146.611,164.883 146.944,164.383 147.5,164C 153.349,163.182 159.015,163.348 164.5,164.5 Z"/></g>
<g><path style="opacity:1" fill="#eff0b4" d="M 361.5,164.5 C 354.151,164.549 346.817,164.882 339.5,165.5C 343.921,164.088 348.588,163.421 353.5,163.5C 356.355,163.503 359.022,163.836 361.5,164.5 Z"/></g>
<g><path style="opacity:1" fill="#e6ea8c" d="M 164.5,164.5 C 172.282,164.874 179.948,166.04 187.5,168C 191.12,176.08 195.62,183.58 201,190.5C 204.367,194.203 208.034,197.536 212,200.5C 210.962,219.047 216.129,235.547 227.5,250C 223.993,258.184 222.493,266.684 223,275.5C 224.371,277.041 225.871,278.375 227.5,279.5C 229.515,280.924 231.848,281.59 234.5,281.5C 237.939,281.747 241.272,281.414 244.5,280.5C 245.833,296.319 246.499,312.486 246.5,329C 246.499,345.514 245.833,361.681 244.5,377.5C 224.762,360.305 201.762,350.138 175.5,347C 166.51,346.201 157.51,345.534 148.5,345C 145.667,343.5 143.5,341.333 142,338.5C 141.333,282.5 141.333,226.5 142,170.5C 142.996,168.34 144.496,166.673 146.5,165.5C 152.441,164.587 158.441,164.254 164.5,164.5 Z"/></g>
<g><path style="opacity:1" fill="#e6ea8c" d="M 361.5,164.5 C 364.643,165.134 367.143,166.8 369,169.5C 369.667,225.833 369.667,282.167 369,338.5C 367.5,341.333 365.333,343.5 362.5,345C 333.062,344.281 305.728,351.281 280.5,366C 275.469,370.175 270.469,374.341 265.5,378.5C 264.502,341.67 264.168,304.67 264.5,267.5C 297.572,264.582 319.738,247.582 331,216.5C 335.325,199.735 338.158,182.735 339.5,165.5C 346.817,164.882 354.151,164.549 361.5,164.5 Z"/></g>
<g><path style="opacity:1" fill="#dbe3cb" d="M 329.5,160.5 C 329.346,168.417 328.346,176.083 326.5,183.5C 326.614,175.583 327.614,167.916 329.5,160.5 Z"/></g>
<g><path style="opacity:1" fill="#eaefe2" d="M 284.5,179.5 C 284.5,178.167 283.833,177.5 282.5,177.5C 284.783,174.044 287.283,170.71 290,167.5C 292.719,164.078 295.886,161.578 299.5,160C 294.254,166.4 289.254,172.9 284.5,179.5 Z"/></g>
<g><path style="opacity:1" fill="#e6ea8c" d="M 124.5,335.5 C 125.81,346.104 131.143,354.104 140.5,359.5C 142.515,360.924 144.848,361.59 147.5,361.5C 176.342,360.619 202.676,368.119 226.5,384C 227.833,385.333 229.167,386.667 230.5,388C 227.881,387.917 225.214,387.75 222.5,387.5C 216.845,385.224 210.845,384.224 204.5,384.5C 201.167,384.5 197.833,384.5 194.5,384.5C 186.01,383.343 177.343,383.176 168.5,384C 162.902,384.067 157.569,384.901 152.5,386.5C 140.662,387.001 128.995,388.668 117.5,391.5C 112.417,391.542 108.917,389.209 107,384.5C 106.333,325.167 106.333,265.833 107,206.5C 107.876,204.365 109.376,203.031 111.5,202.5C 115.434,201.64 119.434,201.307 123.5,201.5C 123.168,246.336 123.501,291.003 124.5,335.5 Z"/></g>
<g><path style="opacity:1" fill="#e8ec9c" d="M 124.5,335.5 C 123.501,291.003 123.168,246.336 123.5,201.5C 119.434,201.307 115.434,201.64 111.5,202.5C 111.611,201.883 111.944,201.383 112.5,201C 116.486,200.501 120.486,200.334 124.5,200.5C 124.5,245.5 124.5,290.5 124.5,335.5 Z"/></g>
<g><path style="opacity:1" fill="#f8f8e2" d="M 386.5,200.5 C 386.5,245.5 386.5,290.5 386.5,335.5C 386.829,338.228 386.163,340.562 384.5,342.5C 385.147,295.02 385.814,247.687 386.5,200.5 Z"/></g>
<g><path style="opacity:1" fill="#e9ed9d" d="M 386.5,200.5 C 390.042,200.187 393.375,200.521 396.5,201.5C 393.5,201.5 390.5,201.5 387.5,201.5C 387.832,246.336 387.499,291.003 386.5,335.5C 386.5,290.5 386.5,245.5 386.5,200.5 Z"/></g>
<g><path style="opacity:1" fill="#e6ea8d" d="M 396.5,201.5 C 399.643,202.134 402.143,203.8 404,206.5C 404.667,265.833 404.667,325.167 404,384.5C 401.833,389.503 397.999,391.836 392.5,391.5C 365.165,385.858 337.498,383.525 309.5,384.5C 300.494,384.538 291.827,385.872 283.5,388.5C 282.325,388.719 281.325,388.386 280.5,387.5C 287.066,381.596 294.399,376.929 302.5,373.5C 304.027,373.573 305.027,372.906 305.5,371.5C 325.886,364.523 346.886,360.69 368.5,360C 376.511,356.494 381.844,350.661 384.5,342.5C 386.163,340.562 386.829,338.228 386.5,335.5C 387.499,291.003 387.832,246.336 387.5,201.5C 390.5,201.5 393.5,201.5 396.5,201.5 Z"/></g>
<g><path style="opacity:1" fill="#d1dcbe" d="M 224.5,220.5 C 225.924,222.515 226.59,224.848 226.5,227.5C 225.076,225.485 224.41,223.152 224.5,220.5 Z"/></g>
<g><path style="opacity:1" fill="#b8c79b" d="M 255.5,243.5 C 255.277,247.162 254.277,250.495 252.5,253.5C 252.723,249.838 253.723,246.505 255.5,243.5 Z"/></g>
<g><path style="opacity:1" fill="#c7d1af" d="M 252.5,253.5 C 252.5,254.833 252.5,256.167 252.5,257.5C 253.5,257.5 254.5,257.5 255.5,257.5C 254.432,258.434 253.099,258.768 251.5,258.5C 251.216,256.585 251.549,254.919 252.5,253.5 Z"/></g>
<g><path style="opacity:1" fill="#eef1b4" d="M 264.5,267.5 C 264.168,304.67 264.502,341.67 265.5,378.5C 265.44,379.043 265.107,379.376 264.5,379.5C 263.17,342.002 263.17,304.669 264.5,267.5 Z"/></g>
<g><path style="opacity:1" fill="#c5d2ac" d="M 234.5,263.5 C 234.326,265.861 233.993,268.194 233.5,270.5C 232.355,268.047 232.688,265.713 234.5,263.5 Z"/></g>
<g><path style="opacity:1" fill="#f0f1b8" d="M 227.5,279.5 C 230.152,279.41 232.485,280.076 234.5,281.5C 231.848,281.59 229.515,280.924 227.5,279.5 Z"/></g>
<g><path style="opacity:1" fill="#edf0b1" d="M 244.5,377.5 C 245.833,361.681 246.499,345.514 246.5,329C 246.499,312.486 245.833,296.319 244.5,280.5C 244.811,279.522 245.478,278.855 246.5,278.5C 247.833,312.167 247.833,345.833 246.5,379.5C 245.478,379.145 244.811,378.478 244.5,377.5 Z"/></g>
<g><path style="opacity:1" fill="#f2f4c9" d="M 140.5,359.5 C 143.152,359.41 145.485,360.076 147.5,361.5C 144.848,361.59 142.515,360.924 140.5,359.5 Z"/></g>
<g><path style="opacity:1" fill="#f2f3c4" d="M 305.5,371.5 C 305.027,372.906 304.027,373.573 302.5,373.5C 302.973,372.094 303.973,371.427 305.5,371.5 Z"/></g>
<g><path style="opacity:1" fill="#f5f5d2" d="M 194.5,384.5 C 180.452,384.289 166.452,384.955 152.5,386.5C 157.569,384.901 162.902,384.067 168.5,384C 177.343,383.176 186.01,383.343 194.5,384.5 Z"/></g>
<g><path style="opacity:1" fill="#eff1ba" d="M 204.5,384.5 C 210.845,384.224 216.845,385.224 222.5,387.5C 216.268,387.128 210.268,386.128 204.5,384.5 Z"/></g>
<g><path style="opacity:1" fill="#f6f6d6" d="M 309.5,384.5 C 301.007,386.096 292.34,387.429 283.5,388.5C 291.827,385.872 300.494,384.538 309.5,384.5 Z"/></g>
</g>
</svg>
